<?xml version="1.0" encoding="utf-8"?>
<!-- Generator: Adobe Illustrator 25.2.0, SVG Export Plug-In . SVG Version: 6.00 Build 0)  -->
<svg version="1.1" id="Layer_1" xmlns="http://www.w3.org/2000/svg" xmlns:xlink="http://www.w3.org/1999/xlink" x="0px" y="0px"
	 viewBox="0 0 512 512" style="enable-background:new 0 0 512 512;" xml:space="preserve">
<style type="text/css">
	.st0{fill:#8965D3;}
</style>
<g>
	<polygon class="st0" points="269.6,176.2 336.1,214.4 336.1,297.6 177.3,388.8 18.5,297.6 18.5,214.4 177.3,123.2 224.3,150.1 
		242.4,139.7 177.3,102.3 0.4,204 0.4,308 177.3,409.7 354.3,308 354.3,204 287.7,165.8 	"/>
	<polygon class="st0" points="334.7,102.3 157.7,204 157.7,308 224.3,346.2 242.4,335.8 175.9,297.6 175.9,214.4 334.7,123.2 
		493.5,214.4 493.5,297.6 334.7,388.8 287.7,361.9 269.6,372.3 334.7,409.7 511.6,308 511.6,204 	"/>
</g>
</svg>
