<?xml version="1.0" encoding="UTF-8"?><svg id="Layer_1" xmlns="http://www.w3.org/2000/svg" viewBox="0 0 110.24 155.39"><defs><style>.cls-1{stroke-width:.3px;}.cls-1,.cls-2,.cls-3{stroke-miterlimit:10;}.cls-1,.cls-2,.cls-3,.cls-4,.cls-5{fill:none;}.cls-1,.cls-4,.cls-5{stroke:#000;}.cls-6{fill:#52271a;}.cls-7{fill:#47786f;}.cls-8{fill:#e1dec6;}.cls-2{stroke:#a5d0c9;}.cls-2,.cls-3,.cls-4{stroke-width:.7px;}.cls-9{fill:#0073bb;}.cls-10{fill:#7e410a;}.cls-11{fill:#ffaf6c;}.cls-12{fill:#5e96b8;}.cls-13{fill:#c87331;}.cls-14{fill:#004887;}.cls-3{stroke:#906935;}.cls-15{fill:#ef8a2f;}.cls-16{fill:#81a8a2;}.cls-17{fill:#a80007;}.cls-4,.cls-5{stroke-linejoin:round;}.cls-18{fill:#231518;}.cls-5{stroke-width:.4px;}</style></defs><polygon class="cls-11" points="48.88 111.22 53.07 112.06 55.89 107.32 51.12 106.48 48.88 111.22"/><polygon points="20.35 126.49 28.72 129.88 29.16 128.94 42.96 107.21 35.64 102.71 21.88 124.79 20.35 126.49"/><polygon points="28.98 130.52 19.5 126.69 21.48 124.49 35.47 102.02 43.66 107.05 29.6 129.18 28.98 130.52"/><g><polygon class="cls-6" points="26.8 123.42 28.44 123.42 30.08 127.21 28.44 128.97 26.8 123.42"/><path class="cls-6" d="M24.1,121.23s6.45,.26,8.12,.44l.64,1.36s-1.86,.47-9.53-.54l.78-1.27Z"/><polygon class="cls-6" points="26.34 117.63 30.59 118 31.43 119.57 25.45 119.06 26.34 117.63"/><path class="cls-6" d="M24.41,120.73l2.61,.19-.56-1.35h-1.32s-.7,1.14-.73,1.16Z"/><path class="cls-6" d="M33.32,118.29s1.74-.05,2.46-.05l-.98,1.69-.77-.07s-.29-.73-.71-1.56Z"/><path class="cls-6" d="M29.84,112.06l-.7,1.22c3,.44,6.26,.49,9.47,.47l-.52-1.18c-3.29-.02-5.64,0-8.25-.51Z"/><path class="cls-6" d="M28.56,113.93l1.58,.13s3.32,5.25,3.91,6.86l-.85,1.28c-1.57-3.15-3.05-5.78-4.64-8.27Z"/><path class="cls-6" d="M33.74,114.34l1.79-.07s.82,2.03,1.17,2.37l-.67,1.34-.76-.15-1.53-3.49Z"/><path class="cls-6" d="M32.9,112.06s.82,.03,1.66,0c0,0-.48-2.32-.83-3.57l-1.68-.11s.37,2.22,.85,3.67Z"/><path class="cls-6" d="M35.7,106.69s.32,1.17,.53,1.51l-3.87-.11,.85-1.4s1.28,.08,2.49,0Z"/><path class="cls-6" d="M37.61,106.69s1.94-.04,2.7-.12l1.97,1.36s-3.32,.26-4.06,.28c0,0-.28-.68-.62-1.51Z"/><path class="cls-6" d="M36.22,103.04s1.08,5.52,3.42,9.19l-.73,1.09s-1.78-3.48-2.41-5.34-1.39-5.25-1.39-5.25l1.12,.31Z"/><path class="cls-18" d="M34.29,108.63h2.05s.75,2.14,1.5,3.45h-2.74s-.67-2.03-.82-3.45Z"/><path class="cls-18" d="M33.74,106.35s1.04,0,1.74,0c0,0-.46-2.04-.55-2.72,0,0-1,1.26-1.19,2.72Z"/><path class="cls-18" d="M36.22,114.33s.51,1.48,.83,1.96l1.3-2.02s-1.54,.06-2.13,.06Z"/><path class="cls-18" d="M30.68,114.06s1.8,.15,2.64,.2l1.57,3.57-1.81,.07s-1.95-3.2-2.41-3.84Z"/><path class="cls-18" d="M30.48,111.61s1.11,.16,1.95,.25c0,0-.68-2.5-.77-3.08,0,0-1.13,2.1-1.27,2.37s.09,.46,.09,.46Z"/><path class="cls-18" d="M28.44,114.72s1.18,2.1,1.55,2.68c0,0-2.31-.08-3.29-.32l1.64-2.82,.09,.45Z"/><path class="cls-18" d="M26.93,119.8s4.46,.3,4.69,.32c0,0,.21,.42,.5,.99,0,0-3.56,.03-4.68,0,0,0-.37-1.1-.51-1.31Z"/><polygon class="cls-18" points="29.07 123.67 32.4 123.67 30.46 126.7 29.07 123.67"/><path class="cls-18" d="M24.41,122.95s1.4,.27,1.91,.32l.89,3.62-2.49,.11-.32-4.05Z"/><path class="cls-18" d="M38.35,108.63s2.95-.16,4.09-.13l-2.46,3.56s-1.08-1.95-1.63-3.43Z"/><path class="cls-18" d="M37.29,104.43s.37,1.8,.32,1.93,1.37-.04,1.89-.11-1.81-3.19-1.81-3.19l-.4,1.37Z"/></g><polygon class="cls-15" points="30.39 98.62 37.28 104.25 42.85 108.14 48.54 111.15 51.12 106.57 46.4 103.61 41.29 100.39 33.87 93.66 30.39 98.62"/><polygon class="cls-13" points="28.14 95.23 32.05 90.65 33.6 93.59 30.46 98.31 29.31 97.85 27.77 95.38 28.14 95.23"/><polygon class="cls-3" points="27.89 95.54 32.05 90.53 39.19 93.97 38.91 94.57 42.65 99.64 48.87 101.84 49.62 100.68 56.1 107.32 53.11 112.23 48.72 111.25 42.68 108.04 35.16 102.76 30.23 98.62 27.89 95.54"/><polyline class="cls-3" points="32.05 90.53 33.71 93.8 41.75 100.79 51.27 106.57 56.1 107.32"/><line class="cls-3" x1="30.23" y1="98.62" x2="33.71" y2="93.8"/><path class="cls-10" d="M32.63,91.36l1.19,2.44s3.58,3.2,5.44,4.82,4.7,3.71,6.69,4.72,4.96,3.01,4.96,3.01l2.43,.54,2.69,.36-3.27-3.35-3.16-3-10.76-7.1-6.56-3.15,.35,.71Z"/><path class="cls-16" d="M42.97,99.64l5.9,2.2,7.37-11.33,36.56-56.26s.85-3.41,1.36-6.24,1.98-11.95,1.98-11.95l-10.39,16.08L42.97,99.64Z"/><polygon class="cls-7" points="39.02 94.57 42.5 99.45 96.14 15.87 89.87 20.16 80.6 27.29 39.02 94.57"/><polygon points="73.66 46.42 75.22 48.83 74.59 49.13 73.66 46.42 73.66 46.42"/><polygon points="75.78 47.26 80.35 46.53 75.94 47.94 75.78 47.26 75.78 47.26"/><polyline class="cls-2" points="96.42 15.42 43.6 98.08 42.65 99.64"/><path class="cls-4" d="M93.27,32.93l3.15-17.51-15.2,11.31c-.42,.32-.79,.71-1.06,1.16L38.91,94.57l3.73,5.07,6.22,2.2L92.66,34.48c.3-.47,.51-.99,.61-1.54Z"/><polyline class="cls-4" points="39.9 92.97 43.6 98.08 50.1 99.95"/><path d="M83.58,42.17l4.25-.68c.46-.08,.56,.65,.09,.69l-4.28,.42c-.27,.03-.33-.39-.06-.43h0Z"/><g><line class="cls-5" x1="46.25" y1="91.58" x2="44" y2="90.16"/><path d="M45.9,90c.33,.47,.53,1,.68,1.55,.02,.09-.03,.18-.11,.21-.39,.15-.8,.28-1.24,.32,.34-.29,.71-.49,1.09-.67l-.11,.23c-.18-.53-.31-1.07-.31-1.64h0Z"/><path class="cls-1" d="M42.57,91.98l2.03,1.76-1.77-.2s1.02,1.56,.95,1.52-2.18-.93-2.18-.93"/><line class="cls-1" x1="43.57" y1="92.25" x2="42.14" y2="94.92"/><circle class="cls-1" cx="46.1" cy="88.89" r=".59"/><ellipse class="cls-1" cx="51.12" cy="91.58" rx=".47" ry=".6"/><path class="cls-1" d="M51.27,94.05s-1.28-.74-2.33-.93-1.2,1.47,0,1.39,1.56-.26,1.62,.13-.01,1.28-.01,1.28c0,0-3.67,1.17-3.65,1.14"/><line class="cls-1" x1="47.86" y1="95.38" x2="48.71" y2="98.01"/></g><g><path d="M21.48,124.22s-.78-2.25-2.43-2.17-1.8,1.91-.85,3c0,0-3.66,.36-4.31,5.58s2.87,8.55,6.63,9.22,9.43-1.58,9.93-7.04c0,0,.11-4.42-1.62-4.42,0,0,.44-1.87,.13-2.41s-1.09-.95-2.14-.23c0,0,.31-1.37-.71-1.71-.72-.24-1.47,.3-1.47,.3,0,0,.05-.92-.48-1.48-.38-.4-1.04-.35-1.43,.03l-1.26,1.32Z"/><path class="cls-8" d="M19.27,125.53s-.84-.9-1.12-1.46c-.35-.71,.62-2.31,1.84-1.18,.98,.91,1.17,2.44,1.17,2.44l1.66-1.72c.36-.37,.96-.39,1.34-.04h0c.29,.27,.39,.69,.24,1.06l-.79,2,.28,.18s.85-2.29,1.82-2.39,.98,1.44-.07,3.05l.21,.21s1.08-1.74,1.74-2.05,1.49,.5,.72,2.05-.93,1.74-.57,2.28,.57,.95,.25,1.29-.87,.48-1.5,0c0,0,.66,1.06,1.52,.79s.84-1.5,.53-2.15l.86-.85s.66,2.96,.18,4.49-1.26,4.42-6.13,5.55-8.98-2.79-9.1-7.02,2.37-6.37,4.93-6.53Z"/><path d="M21.85,128.48s.28-.45-.08-.67-1.28,.59-1.45,1.94,.68,1.74,1.45,1.56,1.44-2.03,1.23-2.85c0,0-.27-.22-.86,.44,0,0-.38-.03-.28-.42Z"/><path d="M16.18,128.7c-.54,.52-.68,1.34-.45,2.05,.14,.43,.39,.89,.81,1.19,.98,.71,2.62-.29,2.66-1.72,.03-1.22-1.7-2.8-3.02-1.52Z"/><path d="M21.52,132.42c-.68,.53-.94,1.48-.63,2.28,.18,.46,.57,.94,1.35,1.2,1.82,.6,2.48-1.3,2.09-2.51-.3-.96-1.73-1.82-2.82-.97Z"/><path class="cls-17" d="M18.97,133.13s0,2.06-.03,2.33-1.67,.64-1.92,.64-.68-1.94-.41-2.66c.14-.38,1.38-.22,1.38-.22,0,0,.14,1.05,.03,1.55l-.74,.12-.09-1.28-.28,.04s.07,1.41,.2,1.65,1.07-.02,1.32-.09,.32-2.03-.07-2.47-2.3-.23-2.42,.42-.14,2.77,.63,3.38,2.65-.05,2.74-.58,.03-2.17-.34-2.83Z"/></g><line class="cls-3" x1="51.27" y1="106.57" x2="48.72" y2="111.25"/><polygon class="cls-14" points="36.5 100.87 39.18 104.67 43.46 105.24 41.15 101.38 36.5 100.87"/><polygon class="cls-12" points="37.69 101.95 39.29 104.13 39.98 103.04 37.69 101.95"/><polygon class="cls-9" points="39.75 104.34 40.5 103.55 42.39 104.79 39.75 104.34"/></svg>